<svg width="776" height="293" viewBox="0 0 776 293" fill="none" xmlns="http://www.w3.org/2000/svg">
<path d="M83.8798 107.155L113.911 90L143.942 107.155L132.901 113.493L113.911 102.675L94.9206 113.493L83.8798 107.155ZM143.942 128.79L132.901 122.453L113.911 133.27L94.9206 122.453L83.8798 128.79V141.465L102.87 152.283V173.918L113.911 180.256L124.952 173.918V152.283L143.942 141.465V128.79ZM143.942 163.101V150.425L132.901 156.763V169.438L143.942 163.101ZM151.78 167.581L132.79 178.398V191.073L162.821 173.918V139.608L151.78 145.945V167.581ZM140.74 117.973L151.78 124.31V136.985L162.821 130.648V117.973L151.78 111.635L140.74 117.973ZM102.87 182.988V195.663L113.911 202L124.952 195.663V182.988L113.911 189.325L102.87 182.988ZM83.8798 163.101L94.9206 169.438V156.763L83.8798 150.425V163.101ZM102.87 117.973L113.911 124.31L124.952 117.973L113.911 111.635L102.87 117.973ZM76.0408 124.31L87.0816 117.973L76.0408 111.635L65 117.973V130.648L76.0408 136.985V124.31ZM76.0408 145.945L65 139.608V173.918L95.0308 191.073V178.398L76.0408 167.581V145.945Z" fill="#F0B90B"/>
<path d="M249.864 160.287V160.109C249.864 151.739 245.366 147.554 238.078 144.794C242.576 142.3 246.355 138.382 246.355 131.348V131.17C246.355 121.375 238.438 115.053 225.572 115.053H196.33V177.384H226.291C240.507 177.384 249.864 171.685 249.864 160.287ZM232.589 133.663C232.589 138.293 228.72 140.252 222.602 140.252H209.826V127.074H223.502C229.35 127.074 232.589 129.389 232.589 133.485V133.663ZM236.098 158.595C236.098 163.226 232.409 165.363 226.291 165.363H209.826V151.65H225.841C232.949 151.65 236.098 154.232 236.098 158.417V158.595Z" fill="#F0B90B"/>
<path d="M318.125 177.384V115.053H304.449V153.431L274.938 115.053H262.162V177.384H275.837V137.759L306.339 177.384H318.125Z" fill="#F0B90B"/>
<path d="M387.678 160.287V160.109C387.678 151.739 383.179 147.554 375.891 144.794C380.39 142.3 384.169 138.382 384.169 131.348V131.17C384.169 121.375 376.251 115.053 363.385 115.053H334.144V177.384H364.105C378.32 177.384 387.678 171.685 387.678 160.287ZM370.403 133.663C370.403 138.293 366.534 140.252 360.416 140.252H347.64V127.074H361.316C367.164 127.074 370.403 129.389 370.403 133.485V133.663ZM373.912 158.595C373.912 163.226 370.223 165.363 364.105 165.363H347.64V151.65H363.655C370.763 151.65 373.912 154.232 373.912 158.417V158.595Z" fill="#F0B90B"/>
<path d="M471.185 166.373L464.077 159.249C458.679 164.235 453.73 167.352 445.992 167.352C433.936 167.352 425.209 157.379 425.209 145.091C425.209 132.803 433.936 123.008 445.992 123.008C453.19 123.008 458.589 126.125 463.627 130.755L470.735 122.652C464.707 116.953 457.689 112.946 446.082 112.946C427.008 112.946 413.602 127.46 413.602 145.269C413.602 163.256 427.278 177.414 445.633 177.414C457.419 177.414 464.617 173.14 471.185 166.373Z" fill="#F0B90B"/>
<path d="M524.834 150.078V176.346H535.901V114.014H524.834V139.926H494.783V114.014H483.716V176.346H494.783V150.078H524.834Z" fill="#F0B90B"/>
<path d="M585.544 113.569H575.288L547.576 176.346H558.912L565.391 161.297H595.173L601.562 176.346H613.256L585.544 113.569ZM591.122 151.591H569.441L580.235 126.659L591.122 151.591Z" fill="#F0B90B"/>
<path d="M625.586 114.014V176.346H636.653V114.014H625.586Z" fill="#F0B90B"/>
<path d="M698.41 157.112L664.667 114.014H654.411V176.346H665.299V132.001L700.027 176.346H709.298V114.014H698.41V157.112Z" fill="#F0B90B"/>
</svg>
