<svg width="776" height="293" viewBox="0 0 776 293" fill="none" xmlns="http://www.w3.org/2000/svg">
<g clip-path="url(#clip0_3_38)">
<path d="M233.508 140.457C233.508 141.57 232.57 142.508 231.398 142.508H192.551C193.547 152.12 200.754 160.912 210.949 160.912C217.922 160.912 223.078 158.274 226.945 152.706C227.355 152.12 227.941 151.71 228.645 151.71C229.758 151.71 230.578 152.531 230.578 153.644C230.578 154.055 230.461 154.348 230.285 154.641C226.359 161.439 218.566 164.78 210.949 164.78C197.883 164.78 188.508 153.058 188.508 140.574C188.508 128.031 197.824 116.368 210.949 116.368C224.016 116.368 233.449 127.973 233.508 140.457ZM229.348 138.64C228.527 129.028 221.145 120.236 210.949 120.236C200.754 120.236 193.547 129.028 192.551 138.64H229.348Z" fill="#3B3B3B"/>
<path d="M280.676 117.305C281.789 117.305 282.609 118.302 282.609 119.239C282.609 120.353 281.789 121.174 280.676 121.174H270.246V162.143C270.246 163.139 269.426 164.077 268.312 164.077C267.199 164.077 266.379 163.081 266.379 162.143V121.174H256.359C255.246 121.174 254.426 120.353 254.426 119.239C254.426 118.243 255.246 117.305 256.359 117.305H266.379V102.359C266.379 101.363 267.141 100.425 268.137 100.308C269.367 100.191 270.305 101.07 270.305 102.242V117.305H280.676Z" fill="#3B3B3B"/>
<path d="M344.309 137.116V161.908C344.309 163.022 343.312 163.843 342.375 163.843C341.262 163.843 340.441 163.022 340.441 161.908V137.116C340.441 128.734 335.695 120.412 326.379 120.412C314.426 120.412 309.27 130.844 309.973 141.57C309.973 141.863 310.09 143.094 310.09 143.27V161.85C310.09 162.846 309.328 163.784 308.332 163.901C307.102 164.018 306.164 163.139 306.164 161.967V80.4389C306.164 79.4425 306.984 78.5048 308.098 78.5048C309.211 78.5048 310.031 79.5011 310.031 80.4389V126.507C313.371 120.529 319.348 116.485 326.32 116.485C337.805 116.485 344.309 126.507 344.309 137.116Z" fill="#3B3B3B"/>
<path d="M414.094 140.457C414.094 141.57 413.156 142.508 411.984 142.508H373.137C374.133 152.12 381.34 160.912 391.535 160.912C398.508 160.912 403.664 158.274 407.531 152.706C407.941 152.12 408.527 151.71 409.23 151.71C410.344 151.71 411.164 152.531 411.164 153.644C411.164 154.055 411.047 154.348 410.871 154.641C406.945 161.439 399.152 164.78 391.535 164.78C378.469 164.78 369.094 153.058 369.094 140.574C369.094 128.031 378.41 116.368 391.535 116.368C404.543 116.368 413.977 127.973 414.094 140.457ZM409.875 138.64C409.055 129.028 401.672 120.236 391.477 120.236C381.34 120.236 374.074 129.028 373.078 138.64H409.875Z" fill="#3B3B3B"/>
<path d="M461.789 119.122C461.789 120.353 461.086 121.056 459.973 121.232C448.547 122.932 443.391 132.251 443.391 143.094V161.674C443.391 162.67 442.629 163.608 441.633 163.725C440.402 163.842 439.465 162.963 439.465 161.791V119.415C439.465 118.419 440.227 117.481 441.223 117.364C442.453 117.247 443.391 118.126 443.391 119.298V127.914C446.613 122.463 453 117.305 459.68 117.305C460.676 117.305 461.789 118.009 461.789 119.122Z" fill="#3B3B3B"/>
<path d="M525.715 140.457C525.715 141.57 524.777 142.508 523.606 142.508H484.758C485.754 152.12 492.961 160.912 503.156 160.912C510.129 160.912 515.285 158.274 519.152 152.706C519.562 152.12 520.148 151.71 520.852 151.71C521.965 151.71 522.785 152.531 522.785 153.644C522.785 154.055 522.668 154.348 522.492 154.641C518.566 161.439 510.773 164.78 503.156 164.78C490.09 164.78 480.715 153.058 480.715 140.574C480.715 128.031 490.031 116.368 503.156 116.368C516.223 116.368 525.656 127.973 525.715 140.457ZM521.555 138.64C520.734 129.028 513.352 120.236 503.156 120.236C492.961 120.236 485.754 129.028 484.758 138.64H521.555Z" fill="#3B3B3B"/>
<path d="M588.527 119.591V133.013V162.143C588.527 163.256 587.531 164.077 586.594 164.077C585.48 164.077 584.66 163.256 584.66 162.143V154.054C581.437 160.443 575.754 165.073 568.488 165.073C556.945 165.073 550.559 155.051 550.559 144.442V119.533C550.559 118.536 551.379 117.598 552.492 117.598C553.605 117.598 554.426 118.595 554.426 119.533V144.442C554.426 152.824 559.172 161.146 568.488 161.146C581.555 161.146 584.66 148.897 584.66 135.358V119.474C584.66 118.302 585.891 117.129 587.297 117.657C588 118.009 588.527 118.771 588.527 119.591Z" fill="#3B3B3B"/>
<path d="M686.906 136.94V161.85C686.906 162.963 685.91 163.784 684.973 163.784C683.859 163.784 683.039 162.963 683.039 161.85V136.94C683.039 128.559 678.293 120.353 668.977 120.353C657.258 120.353 652.805 132.896 652.805 142.625V161.85C652.805 162.963 651.809 163.784 650.871 163.784C649.758 163.784 648.937 162.963 648.937 161.85V136.94C648.937 128.559 644.191 120.353 634.875 120.353C623.039 120.353 618.176 129.672 618.586 142.098C618.586 142.391 618.703 142.918 618.586 143.094V161.791C618.586 162.788 617.824 163.725 616.828 163.843C615.598 163.96 614.66 163.081 614.66 161.908V119.415C614.66 118.419 615.422 117.481 616.418 117.364C617.648 117.247 618.586 118.126 618.586 119.298V126.39C621.926 120.412 627.902 116.485 634.875 116.485C642.785 116.485 648.937 121.525 651.457 128.852C654.68 121.584 660.949 116.485 668.977 116.485C680.402 116.485 686.906 126.39 686.906 136.94Z" fill="#3B3B3B"/>
<path opacity="0.6" d="M102.727 107.869L54.0938 129.965L102.727 158.743L151.418 129.965L102.727 107.869Z" fill="black"/>
<path opacity="0.45" d="M54.0938 129.965L102.727 158.743V107.869V49.1992L54.0938 129.965Z" fill="black"/>
<path opacity="0.8" d="M102.727 49.1992V107.869V158.743L151.418 129.965L102.727 49.1992Z" fill="black"/>
<path opacity="0.45" d="M54.0938 139.226L102.727 207.801V167.945L54.0938 139.226Z" fill="black"/>
<path opacity="0.8" d="M102.727 167.945V207.801L151.418 139.226L102.727 167.945Z" fill="black"/>
</g>
<defs>
<clipPath id="clip0_3_38">
<rect width="776" height="293" fill="white"/>
</clipPath>
</defs>
</svg>
