<svg id="Capa_1" data-name="Capa 1" xmlns="http://www.w3.org/2000/svg" viewBox="0 0 595.28 361"><title>logo_hand</title><g id="T3jEv7"><path d="M149.15,133.49A49.25,49.25,0,0,1,178.58,143c7.69,5.55,15.44,11,23,16.78,2.71,2.06,4.17,2.1,6.22-.89,5.17-7.55,10.66-14.88,16.11-22.23,17.79-24,49.35-28.58,73.38-10.66,6.81,5.07,13.94,9.73,20.53,15.06,3.68,3,5.41,1.85,7.75-1.41q17.64-24.51,35.57-48.82c32.65-44.48,91.72-52.29,135-18,2.3,1.82,2.29,2.91.66,5.14Q444.45,149.56,392.27,221.2c-16.28,22.33-32.49,44.71-48.88,67-13.3,18.06-34.92,25.31-56.27,19.18-9.69-2.78-17.32-9-25.22-14.86-5.36-4-10.79-7.81-16.09-11.85-2.08-1.58-3.68-1.77-6.24-.57-19.16,9-37.46,7.31-54.63-5.18-22.35-16.24-44.84-32.31-67-48.86-30.74-23-26.29-70.17,8-87.22A51.34,51.34,0,0,1,149.15,133.49ZM301.39,290c11.6-.21,20.69-5,27.58-14.45Q398.89,179.5,469,83.61c2.54-3.47,1.9-4.59-1.71-6.26-30.93-14.31-69-4.86-89.13,22.57q-59.46,81.14-118.76,162.4c-2,2.7-1.2,3.91,1.06,5.51,7.74,5.5,15.36,11.15,23.08,16.66A29.68,29.68,0,0,0,301.39,290Zm-84.83-24c10.22-.19,19.33-4.07,25.79-12.86,22.16-30.17,44.14-60.46,66.29-90.63,1.7-2.33,1.51-3.44-.84-5.08-7.63-5.33-15.06-11-22.63-16.37-15.35-11-34.68-8-45.88,7.25-13.79,18.77-27.55,37.56-41.08,56.51-8.7,12.19-17.68,23.88-32.72,28.74-3.24,1.05-1.45,2.2-.05,3.22,11,8.05,22,16.16,33.1,24.07C203.7,264.57,209.66,266.05,216.56,266Zm-99.76-84.3c-.2,16.73,8,28.72,20.82,33.25,13.33,4.71,28.45.46,36.83-10.59,5.93-7.83,11.5-15.92,17.42-23.75,1.65-2.17,1.38-3.25-.72-4.75-8.26-5.89-16.23-12.21-24.68-17.81-10.44-6.92-21.67-7.38-32.71-1.51S117.23,172.07,116.8,181.74Z"/></g></svg>