<svg width="776" height="293" viewBox="0 0 776 293" fill="none" xmlns="http://www.w3.org/2000/svg">
<g clip-path="url(#clip0_3_68)">
<path d="M274.998 206.911V118.628H288.15L289.403 125.754H290.029C293.787 120.873 300.173 117.377 309.064 117.377C325.336 117.377 338.365 130.635 338.365 150.26C338.365 169.885 325.347 183.143 309.064 183.143C300.296 183.143 294.167 179.513 290.913 175.391H290.286V206.9H275.009L274.998 206.911ZM323.077 150.271C323.077 138.767 315.685 131.518 306.671 131.518C297.656 131.518 290.264 138.767 290.264 150.271C290.264 161.776 297.656 169.025 306.671 169.025C315.685 169.025 323.077 161.776 323.077 150.271Z" fill="#22143D"/>
<path d="M346.116 150.26C346.116 131.127 359.883 117.377 378.291 117.377C396.7 117.377 410.467 131.127 410.467 150.26C410.467 169.393 396.7 183.143 378.291 183.143C359.883 183.143 346.116 169.259 346.116 150.26ZM395.067 150.26C395.067 139.001 387.551 131.507 378.291 131.507C369.031 131.507 361.393 139.013 361.393 150.26C361.393 161.508 369.031 168.891 378.291 168.891C387.551 168.891 395.067 161.519 395.067 150.26Z" fill="#22143D"/>
<path d="M421.539 181.903V94.3684H436.816V181.903H421.539Z" fill="#22143D"/>
<path d="M493.528 118.628H509.801L482.255 195.53C479.504 203.158 475.746 206.911 465.849 206.911H451.075V192.782H463.601C465.86 192.782 467.101 191.654 467.862 189.777L469.36 185.656L443.571 118.628H459.843L476.25 162.524H478.755L493.528 118.628Z" fill="#22143D"/>
<path d="M512.72 185.03H528.243C528.869 189.152 532.996 194.781 542.771 194.781C551.908 194.781 557.925 189.029 557.925 180.272V171.393H557.298C553.921 175.023 547.658 178.273 539.639 178.273C523.367 178.273 510.841 165.763 510.841 147.758C510.841 129.753 523.367 117.377 539.639 117.377C548.027 117.377 554.167 120.751 558.048 125.509H558.674L559.926 118.628H573.202V180.272C573.202 197.026 561.928 208.162 542.771 208.162C521.365 208.162 513.1 194.156 512.72 185.03ZM557.925 147.769C557.925 137.896 550.912 131.015 542.021 131.015C533.13 131.015 526.241 137.896 526.241 147.769C526.241 157.643 533.253 164.646 542.021 164.646C550.789 164.646 557.925 157.766 557.925 147.769Z" fill="#22143D"/>
<path d="M583.815 150.26C583.815 131.127 597.582 117.377 615.99 117.377C634.399 117.377 648.166 131.127 648.166 150.26C648.166 169.393 634.399 183.143 615.99 183.143C597.582 183.143 583.815 169.259 583.815 150.26ZM632.766 150.26C632.766 139.001 625.251 131.507 615.99 131.507C606.73 131.507 599.092 139.013 599.092 150.26C599.092 161.508 606.73 168.891 615.99 168.891C625.251 168.891 632.766 161.519 632.766 150.26Z" fill="#22143D"/>
<path d="M658.802 181.903V118.628H671.943L673.195 124.626H673.822C676.327 121.756 682.59 117.377 692.096 117.377C706.624 117.377 717.136 127.877 717.136 143.882V181.892H701.859V145.882C701.859 137.75 696.1 131.875 688.215 131.875C680.331 131.875 674.068 138.007 674.068 145.882V181.892H658.791L658.802 181.903Z" fill="#22143D"/>
<path d="M192.798 174.509L230.353 152.851C232.343 151.701 233.574 149.568 233.574 147.278V103.963C233.574 101.673 232.343 99.5398 230.353 98.3894L192.798 76.7319C190.807 75.5814 188.335 75.5926 186.356 76.7319L148.801 98.3894C146.81 99.5398 145.58 101.673 145.58 103.963V181.367L119.242 196.546L92.9045 181.367V150.997L119.242 135.818L136.611 145.837V125.464L122.463 117.299C121.49 116.741 120.372 116.439 119.242 116.439C118.113 116.439 116.994 116.741 116.021 117.299L78.4663 138.957C76.4756 140.107 75.2454 142.24 75.2454 144.53V187.845C75.2454 190.135 76.4756 192.268 78.4663 193.419L116.021 215.076C118.012 216.215 120.472 216.215 122.463 215.076L160.018 193.419C162.009 192.268 163.239 190.135 163.239 187.845V110.441L163.709 110.173L189.566 95.2619L215.903 110.441V140.811L189.566 155.99L172.22 145.993V166.366L186.345 174.509C188.335 175.648 190.807 175.648 192.786 174.509H192.798Z" fill="#22143D"/>
</g>
<defs>
<clipPath id="clip0_3_68">
<rect width="659" height="166" fill="white" transform="translate(58 63)"/>
</clipPath>
</defs>
</svg>
