<svg width="776" height="293" viewBox="0 0 776 293" fill="none" xmlns="http://www.w3.org/2000/svg">
<g clip-path="url(#clip0_3_39)">
<mask id="mask0_3_39" style="mask-type:luminance" maskUnits="userSpaceOnUse" x="65" y="98" width="646" height="96">
<path d="M711 98H65V194H711V98Z" fill="white"/>
</mask>
<g mask="url(#mask0_3_39)">
<path d="M173.53 173.69L155.81 192.69C155.427 193.103 154.963 193.432 154.446 193.657C153.93 193.883 153.373 193.999 152.81 194H68.8101C68.4094 194 68.0175 193.883 67.6824 193.663C67.3473 193.444 67.0834 193.131 66.9232 192.764C66.7629 192.397 66.7132 191.991 66.7802 191.596C66.8471 191.201 67.0278 190.834 67.3001 190.54L85.0001 171.54C85.3834 171.127 85.8475 170.798 86.3637 170.573C86.8798 170.347 87.4369 170.23 88.0001 170.23H172C172.404 170.222 172.802 170.333 173.143 170.55C173.484 170.767 173.754 171.081 173.917 171.45C174.081 171.82 174.131 172.23 174.062 172.629C173.993 173.027 173.808 173.397 173.53 173.69ZM155.81 135.42C155.425 135.009 154.961 134.681 154.445 134.456C153.929 134.231 153.373 134.113 152.81 134.11H68.8101C68.4094 134.11 68.0175 134.227 67.6824 134.447C67.3473 134.666 67.0834 134.979 66.9232 135.346C66.7629 135.713 66.7132 136.119 66.7802 136.514C66.8471 136.909 67.0278 137.276 67.3001 137.57L85.0001 156.58C85.3848 156.991 85.8493 157.319 86.3651 157.544C86.8809 157.769 87.4373 157.887 88.0001 157.89H172C172.4 157.888 172.79 157.769 173.124 157.549C173.458 157.329 173.72 157.016 173.879 156.649C174.038 156.283 174.087 155.877 174.019 155.483C173.952 155.089 173.772 154.723 173.5 154.43L155.81 135.42ZM68.8101 121.77H152.81C153.373 121.769 153.93 121.653 154.446 121.427C154.963 121.202 155.427 120.873 155.81 120.46L173.53 101.46C173.808 101.166 173.993 100.797 174.062 100.399C174.131 100 174.081 99.5903 173.917 99.2205C173.754 98.8506 173.484 98.5374 173.143 98.3202C172.802 98.103 172.404 97.9916 172 97.9999H88.0001C87.4369 98.0005 86.8798 98.1172 86.3637 98.3426C85.8475 98.5679 85.3834 98.8972 85.0001 99.3099L67.3001 118.31C67.0278 118.604 66.8471 118.971 66.7802 119.366C66.7132 119.761 66.7629 120.167 66.9232 120.534C67.0834 120.901 67.3473 121.214 67.6824 121.433C68.0175 121.653 68.4094 121.77 68.8101 121.77Z" fill="url(#paint0_linear_3_39)"/>
<path d="M275.94 138.6H231V123.8H287.62V109H230.85C228.91 108.99 226.988 109.361 225.192 110.094C223.396 110.826 221.761 111.906 220.383 113.27C219.004 114.634 217.907 116.256 217.155 118.044C216.403 119.832 216.01 121.751 216 123.69V138.69C216.008 140.632 216.398 142.552 217.149 144.343C217.9 146.133 218.996 147.758 220.375 149.124C221.755 150.49 223.39 151.571 225.187 152.305C226.984 153.039 228.909 153.411 230.85 153.4H275.85V168.2H217.07V183H275.94C277.88 183.011 279.802 182.639 281.598 181.907C283.394 181.174 285.029 180.095 286.407 178.731C287.786 177.367 288.883 175.744 289.635 173.956C290.387 172.168 290.78 170.25 290.79 168.31V153.31C290.782 151.369 290.392 149.448 289.641 147.658C288.89 145.868 287.794 144.243 286.415 142.877C285.035 141.511 283.4 140.43 281.603 139.696C279.806 138.962 277.881 138.59 275.94 138.6Z" fill="#0F172A"/>
<path d="M363 109H317.89C315.947 108.984 314.02 109.352 312.219 110.082C310.419 110.812 308.78 111.891 307.397 113.255C306.013 114.62 304.913 116.244 304.159 118.035C303.404 119.825 303.01 121.747 303 123.69V168.31C303.01 170.253 303.404 172.175 304.159 173.965C304.913 175.756 306.013 177.38 307.397 178.745C308.78 180.109 310.419 181.188 312.219 181.918C314.02 182.648 315.947 183.016 317.89 183H363C364.94 183.01 366.862 182.639 368.658 181.906C370.454 181.174 372.089 180.095 373.467 178.731C374.846 177.366 375.943 175.744 376.695 173.956C377.447 172.168 377.84 170.25 377.85 168.31V123.69C377.84 121.75 377.447 119.832 376.695 118.044C375.943 116.256 374.846 114.633 373.467 113.269C372.089 111.905 370.454 110.826 368.658 110.094C366.862 109.361 364.94 108.99 363 109ZM362.89 168.2H318V123.8H362.87L362.89 168.2Z" fill="#0F172A"/>
<path d="M521 109H477C475.06 108.99 473.138 109.361 471.342 110.094C469.546 110.826 467.911 111.905 466.533 113.27C465.154 114.634 464.057 116.256 463.305 118.044C462.553 119.832 462.16 121.751 462.15 123.69V183H477.15V158.69H520.95V183H535.95V123.69C535.94 121.742 535.544 119.815 534.786 118.021C534.027 116.226 532.922 114.599 531.532 113.234C530.143 111.868 528.497 110.791 526.689 110.065C524.881 109.338 522.948 108.976 521 109ZM520.89 143.89H477.09V123.8H520.89V143.89Z" fill="#0F172A"/>
<path d="M696.15 109H652.15C650.21 108.99 648.288 109.361 646.492 110.094C644.696 110.826 643.062 111.906 641.683 113.27C640.304 114.634 639.207 116.256 638.455 118.044C637.703 119.832 637.31 121.751 637.3 123.69V183H652.3V158.69H696V183H711V123.69C710.99 121.751 710.597 119.832 709.845 118.044C709.093 116.256 707.996 114.634 706.617 113.27C705.238 111.906 703.604 110.826 701.808 110.094C700.012 109.361 698.09 108.99 696.15 109ZM696 143.89H652.2V123.8H696V143.89Z" fill="#0F172A"/>
<path d="M609 168.2H603L581.55 115.2C580.815 113.372 579.55 111.805 577.918 110.7C576.286 109.595 574.361 109.003 572.39 109H559.08C557.786 108.994 556.504 109.242 555.307 109.731C554.109 110.22 553.02 110.94 552.1 111.85C551.181 112.76 550.45 113.842 549.949 115.035C549.448 116.227 549.187 117.507 549.18 118.8V183H564.18V123.8H570.18L591.62 176.8C592.367 178.625 593.642 180.186 595.281 181.283C596.919 182.38 598.848 182.964 600.82 182.96H614.13C615.424 182.967 616.706 182.719 617.903 182.23C619.101 181.741 620.19 181.021 621.11 180.111C622.029 179.201 622.76 178.118 623.261 176.926C623.762 175.733 624.023 174.454 624.03 173.16V109H609V168.2Z" fill="#0F172A"/>
<path d="M406.1 109H391.1V168.31C391.11 170.254 391.505 172.177 392.26 173.968C393.015 175.759 394.116 177.384 395.5 178.748C396.884 180.113 398.525 181.191 400.326 181.921C402.128 182.65 404.056 183.017 406 183H451V168.2H406.1V109Z" fill="#0F172A"/>
</g>
</g>
<defs>
<linearGradient id="paint0_linear_3_39" x1="75.8101" y1="196.29" x2="163.89" y2="96.99" gradientUnits="userSpaceOnUse">
<stop offset="0.08" stop-color="#9945FF"/>
<stop offset="0.3" stop-color="#8752F3"/>
<stop offset="0.5" stop-color="#5497D5"/>
<stop offset="0.6" stop-color="#43B4CA"/>
<stop offset="0.72" stop-color="#28E0B9"/>
<stop offset="0.97" stop-color="#19FB9B"/>
</linearGradient>
<clipPath id="clip0_3_39">
<rect width="646" height="96" fill="white" transform="translate(65 98)"/>
</clipPath>
</defs>
</svg>
