<svg width="776" height="293" viewBox="0 0 776 293" fill="none" xmlns="http://www.w3.org/2000/svg">
<g clip-path="url(#clip0_5_2)">
<path fill-rule="evenodd" clip-rule="evenodd" d="M493.693 147C493.693 122.112 511.983 105.099 534.884 105.099C548.459 105.099 557.964 111.037 564.404 119.118C565.229 120.15 564.92 121.674 563.76 122.293L559.252 124.797C558.222 125.365 556.934 125.107 556.187 124.204C551.421 118.266 543.642 114.058 534.858 114.058C517.521 114.058 504.075 127.663 504.075 146.974C504.075 166.156 517.521 179.891 534.858 179.891C543.642 179.891 551.421 175.786 556.187 169.745C556.908 168.815 558.196 168.557 559.252 169.125L563.812 171.629C564.971 172.275 565.28 173.824 564.43 174.857C557.733 183.041 548.433 188.875 534.858 188.875C511.983 188.901 493.693 171.888 493.693 147ZM600.211 127.327C618.011 127.327 629.165 141.062 629.165 158.05C629.165 175.037 618.011 188.901 600.211 188.901C582.411 188.901 571.257 175.063 571.257 158.05C571.257 141.036 582.385 127.327 600.211 127.327ZM600.211 135.46C587.717 135.46 580.711 146.148 580.711 158.05C580.711 170.08 587.743 180.769 600.211 180.769C612.704 180.769 619.608 170.08 619.608 158.05C619.608 146.148 612.679 135.46 600.211 135.46ZM700.907 149.065C700.907 138.739 695.703 135.46 687.821 135.46C680.685 135.46 673.885 139.823 670.484 144.573V185.003C670.484 186.345 669.402 187.429 668.063 187.429H663.812C662.473 187.429 661.391 186.345 661.391 185.003V131.2C661.391 129.858 662.473 128.773 663.812 128.773H668.063C669.402 128.773 670.484 129.858 670.484 131.2V137.267C674.606 132.413 682.591 127.302 691.324 127.302C703.56 127.302 709.974 133.498 709.974 146.251V185.003C709.974 186.345 708.892 187.429 707.553 187.429H703.302C701.963 187.429 700.881 186.345 700.881 185.003L700.907 149.065ZM429.267 106.441C454.358 106.441 470.715 124.049 470.715 147C470.715 170.08 454.358 187.429 429.267 187.429H404.074C402.735 187.429 401.653 186.345 401.653 185.003V108.868C401.653 107.526 402.735 106.441 404.074 106.441H429.267ZM429.267 115.426H411.699V178.445H429.267C448.897 178.445 460.283 164.349 460.283 147C460.283 129.522 449.257 115.426 429.267 115.426ZM641.891 128.773H646.141C647.481 128.773 648.562 129.858 648.562 131.2V185.003C648.562 186.345 647.481 187.429 646.141 187.429H641.891C640.551 187.429 639.469 186.345 639.469 185.003V131.2C639.469 129.883 640.551 128.773 641.891 128.773ZM637.898 112.767C637.898 109.359 640.68 106.7 643.951 106.7C647.352 106.7 650.134 109.385 650.134 112.767C650.134 116.175 647.352 118.963 643.951 118.963C640.68 118.937 637.898 116.149 637.898 112.767ZM333.311 170.313C334.084 169.306 335.553 169.228 336.48 170.106C341.89 175.373 349.978 179.917 360.256 179.917C374.682 179.917 379.267 172.146 379.267 165.95C379.267 156.242 369.453 153.558 358.788 150.64C345.831 147.232 331.405 143.592 331.405 127.689C331.405 114.341 343.281 105.228 359.149 105.228C370.535 105.228 379.576 108.739 386.223 114.909C387.176 115.787 387.279 117.259 386.454 118.24L383.286 122.112C382.513 123.068 381.096 123.145 380.195 122.293C374.296 116.742 366.49 114.212 358.402 114.212C348.716 114.212 341.812 119.427 341.812 127.095C341.812 135.227 351.137 137.654 361.441 140.442C374.656 143.954 389.674 148.084 389.674 165.098C389.674 176.87 381.689 188.901 359.87 188.901C346.81 188.901 336.995 184.28 330.323 177.593C329.448 176.715 329.37 175.347 330.117 174.366L333.311 170.313ZM254.434 106.441H259.638C260.977 106.441 262.059 107.526 262.059 108.868V155.752C262.059 170.571 270.045 179.917 284.96 179.917C299.875 179.917 307.861 170.571 307.861 155.752V108.868C307.861 107.526 308.943 106.441 310.282 106.441H315.486C316.825 106.441 317.907 107.526 317.907 108.868V155.855C317.907 176.018 306.882 188.875 284.96 188.875C263.038 188.875 252.013 175.915 252.013 155.984V108.868C252.013 107.526 253.095 106.441 254.434 106.441Z" fill="#4D4E50"/>
<path d="M144.826 213.608C181.531 213.608 211.286 183.786 211.286 147C211.286 110.213 181.531 80.3922 144.826 80.3922C108.12 80.3922 78.3648 110.213 78.3648 147C78.3648 183.786 108.12 213.608 144.826 213.608Z" fill="white"/>
<path fill-rule="evenodd" clip-rule="evenodd" d="M144.826 68C188.36 68 223.651 103.369 223.651 147C223.651 190.631 188.36 226 144.826 226C101.291 226 66 190.631 66 147C66 103.369 101.291 68 144.826 68ZM162.832 91.3644C161.054 90.7964 159.612 91.8549 159.612 93.7137V98.3092C159.612 99.5742 160.565 100.994 161.724 101.433C180.58 108.352 194.104 126.527 194.104 147.8C194.104 169.074 180.606 187.249 161.724 194.168C160.436 194.632 159.612 195.897 159.612 197.292V201.887C159.612 203.746 161.054 204.804 162.832 204.236C186.686 196.594 203.945 174.211 203.945 147.775C203.945 121.39 186.686 99.0062 162.832 91.3644ZM130.039 93.7395C130.039 91.8549 128.597 90.8222 126.819 91.3902C102.966 99.0062 85.7064 121.39 85.7064 147.826C85.7064 174.263 102.966 196.646 126.819 204.288C128.597 204.856 130.039 203.797 130.039 201.939V197.343C130.039 196.078 129.086 194.658 127.927 194.219C109.071 187.3 95.5467 169.125 95.5467 147.852C95.5467 126.579 109.045 108.404 127.927 101.485C129.112 101.046 130.039 99.6258 130.039 98.3608V93.7395ZM147.299 108.326H142.378C141.013 108.326 139.905 109.436 139.905 110.805V118.446C130.142 119.841 123.831 126.346 123.831 134.711C123.831 145.528 130.348 149.737 144.13 151.595C153.481 153.119 156.134 155.158 156.134 160.476C156.134 165.795 151.626 169.358 145.264 169.358C136.66 169.358 133.826 165.588 132.796 160.709C132.538 159.547 131.559 158.695 130.374 158.695H124.733C123.316 158.695 122.208 159.96 122.466 161.38C123.908 169.59 129.164 175.631 139.905 177.077V184.874C139.905 186.242 141.013 187.352 142.378 187.352H147.299C148.664 187.352 149.772 186.242 149.772 184.874V177.077C159.947 175.45 166.438 168.351 166.438 159.599C166.438 148.058 159.432 144.186 145.908 142.327C135.913 140.881 133.981 138.532 133.981 133.859C133.981 129.419 137.355 126.269 143.898 126.269C149.797 126.269 153.198 128.334 154.589 133.085C154.898 134.143 155.851 134.892 156.959 134.892H162.136C163.579 134.892 164.712 133.549 164.403 132.155C162.755 124.642 157.706 120.125 149.772 118.705V110.83C149.772 109.436 148.664 108.326 147.299 108.326Z" fill="#2775CA"/>
</g>
<defs>
<clipPath id="clip0_5_2">
<rect width="644" height="158" fill="white" transform="translate(66 68)"/>
</clipPath>
</defs>
</svg>
